<?xml version="1.0" encoding="UTF-8"?>
<svg width="23px" height="20px" viewBox="0 0 23 20" version="1.1" xmlns="http://www.w3.org/2000/svg" xmlns:xlink="http://www.w3.org/1999/xlink">
    <!-- Generator: Sketch 62 (91390) - https://sketch.com -->
    <title>Combined Shape</title>
    <desc>Created with Sketch.</desc>
    <g id="Page-1" stroke="none" stroke-width="1" fill="none" fill-rule="evenodd">
        <path d="M21.9294861,0 L22,1.1952053 L7.99985208,3.377 L7.99985208,4.363 L22,4 L22,5 L7.99985208,4.636 L7.99985208,8.999 L23.0001479,8.99946379 C21.8641133,13.1179263 19.0448049,16.3968155 15.4524636,17.8070781 L15.4520243,20 L7.73616732,20 L7.73608615,17.8791146 C4.05399101,16.5108664 1.15568847,13.1897135 -0.000147918311,8.99946379 L2.99985208,8.999 L3,3 L4,3 L4,4.46733921 L4.99985208,4.441 L4.99985208,3.845 L4.00460608,4 L4,3.92192731 L4.99985208,3.702 L5,3 L6,3 L5.99985208,3.484 L6.99985208,3.265 L7,3 L8,3 L7.99985208,3.047 L21.9294861,0 Z M6.99985208,4.61 L5.99985208,4.584 L5.99985208,8.999 L6.99985208,8.999 L6.99985208,4.61 Z M4,4.53266079 L3.99985208,8.999 L4.99985208,8.999 L4.99985208,4.558 L4,4.53266079 Z M6.99985208,3.533 L5.99985208,3.689 L5.99985208,4.415 L6.99985208,4.389 L6.99985208,3.533 Z" id="Combined-Shape" fill="#5EBEBC"></path>
    </g>
</svg>