<?xml version="1.0" encoding="UTF-8"?>
<svg width="26px" height="20px" viewBox="0 0 26 20" version="1.1" xmlns="http://www.w3.org/2000/svg" xmlns:xlink="http://www.w3.org/1999/xlink">
    <!-- Generator: Sketch 62 (91390) - https://sketch.com -->
    <title>Group</title>
    <desc>Created with Sketch.</desc>
    <g id="Page-1" stroke="none" stroke-width="1" fill="none" fill-rule="evenodd">
        <g id="Group" fill="#DC5F5F">
            <path d="M18.5,0 C23.5,2.99722939 26,5.38580771 26,7.16573495 C26,9.83562582 22.6421356,12 18.5,12 C14.3578644,12 11,9.83562582 11,7.16573495 C11,5.38580771 13.5,2.99722939 18.5,0 Z M18.4808599,1.24137931 C18.3525538,1.24137931 18.2485412,2.29736976 18.2485412,3.6 C18.2485412,4.90263024 18.3525538,5.95862069 18.4808599,5.95862069 C18.609166,5.95862069 18.7131786,4.90263024 18.7131786,3.6 C18.7131786,2.29736976 18.609166,1.24137931 18.4808599,1.24137931 Z M17.3524784,1.45261147 L17.3220656,1.45781703 C17.1360857,1.52394573 16.5766518,2.19578955 15.9797064,3.08277915 C15.3081428,4.08064245 14.8434113,4.9729291 14.9416995,5.07575716 C15.0399877,5.17858522 15.6640758,4.45301581 16.3356394,3.45515251 C17.0072029,2.45728921 17.4719344,1.56500256 17.3736462,1.46217449 L17.3736462,1.46217449 L17.3524784,1.45261147 Z M19.5760931,1.45261147 L19.5549252,1.46217449 C19.456637,1.56500256 19.9213684,2.45728907 20.5929319,3.4551522 C21.2644953,4.45301533 21.8885833,5.17858461 21.9868715,5.07575654 C22.0851597,4.97292848 21.6204283,4.08064197 20.9488648,3.08277884 C20.2773014,2.08491571 19.6532134,1.35934643 19.5549252,1.46217449 Z" id="Combined-Shape"></path>
            <path d="M7.5,8 C12.5,10.9972294 15,13.3858077 15,15.165735 C15,17.8356258 11.6421356,20 7.5,20 C3.35786438,20 0,17.8356258 0,15.165735 C0,13.3858077 2.5,10.9972294 7.5,8 Z M7.48085991,9.24137931 C7.35255385,9.24137931 7.24854123,10.2973698 7.24854123,11.6 C7.24854123,12.9026302 7.35255385,13.9586207 7.48085991,13.9586207 C7.60916598,13.9586207 7.7131786,12.9026302 7.7131786,11.6 C7.7131786,10.2973698 7.60916598,9.24137931 7.48085991,9.24137931 Z M6.35249082,9.45259429 L6.32207788,9.45780004 C6.13609696,9.52393017 5.57665794,10.195781 4.97970643,11.0827791 C4.30813598,12.0806519 3.84339886,12.9729463 3.94168701,13.0757744 C4.03997516,13.1786025 4.66406886,12.4530254 5.3356393,11.4551526 C6.00720975,10.4572798 6.47194688,9.56498535 6.37365873,9.46215724 L6.37365873,9.46215724 L6.35249082,9.45259429 Z M8.57608061,9.45259429 L8.5549127,9.46215724 C8.45662455,9.56498535 8.92136158,10.4572796 9.59293192,11.4551523 C10.2645022,12.4530249 10.8885959,13.1786019 10.986884,13.0757738 C11.0851722,12.9729457 10.6204351,12.0806514 9.94886479,11.0827788 C9.27729446,10.0849061 8.65320085,9.35932914 8.5549127,9.46215724 Z" id="Combined-Shape"></path>
        </g>
    </g>
</svg>