<?xml version="1.0" encoding="UTF-8"?>
<svg width="20px" height="29px" viewBox="0 0 20 29" version="1.1" xmlns="http://www.w3.org/2000/svg" xmlns:xlink="http://www.w3.org/1999/xlink">
    <!-- Generator: Sketch 62 (91390) - https://sketch.com -->
    <title>Combined Shape</title>
    <desc>Created with Sketch.</desc>
    <g id="Page-1" stroke="none" stroke-width="1" fill="none" fill-rule="evenodd">
        <path d="M6.85131805,0.633047836 L8,7.56304784 L8,3 L9.887,2.99904784 L10.0610616,2.24259687 L11.9979245,2.56174155 L11.724,3.75304784 L12.161,6.38904784 L13.2399684,1.68506779 L15.1768312,2.00421248 L13.004,11.4770478 L13.176,12.5120478 L14.8842304,5.06433998 L16.8210933,5.38348466 L14.616,14.9990478 L15.657,14.9990478 L18.0631372,4.5068109 L20,4.82595559 L17.666,14.9990478 L20,15 L16.1211667,29 L3.23148371,29 L0,15 L3,14.9990478 L3,1 L4.919,0.999047836 L4.89740576,0.865826985 L6.85131805,0.633047836 Z M5,1.48604784 L5,14.9990478 L7.135,14.9990478 L7.196,14.7350478 L5,1.48604784 Z M10.567,8.79704784 L10,11.2720478 L10,14.9990478 L10.187,14.9990478 L11.004,11.4320478 L10.567,8.79704784 Z" id="Combined-Shape" fill="#8B752D"></path>
    </g>
</svg>