<?xml version="1.0" encoding="UTF-8"?>
<svg width="30px" height="47px" viewBox="0 0 30 47" version="1.1" xmlns="http://www.w3.org/2000/svg" xmlns:xlink="http://www.w3.org/1999/xlink">
    <!-- Generator: Sketch 62 (91390) - https://sketch.com -->
    <title>Combined Shape</title>
    <desc>Created with Sketch.</desc>
    <g id="Page-1" stroke="none" stroke-width="1" fill="none" fill-rule="evenodd">
        <path d="M8,0 L8,0.299 L10.2769771,6.22280005e-14 L12,11.484 L12,3 L15,3 L15,3.104 L15.0915925,2.66679353 L17.9968867,3.19557082 L17.586,5.172 L18.241,9.537 L19.8599525,1.74304725 L22.7652468,2.27182455 L19.506,17.968 L19.764,19.684 L22.3263457,7.34202002 L25.2316399,7.87079731 L21.883,24 L23.444,24 L27.0947057,6.41827374 L30,6.94705104 L26.459,24 L30,24 L24.1817501,47 L4.84722556,47 L0,24 L5,24 L5,0 L8,0 Z M8,4.743 L8,24 L10.662,24 L10.794,23.364 L8,4.743 Z M15.851,13.528 L15,17.627 L15,24 L15.238,24 L16.506,17.893 L15.851,13.528 Z" id="Combined-Shape" fill="#8B752D"></path>
    </g>
</svg>